<mxfile host="app.diagrams.net" agent="Mozilla/5.0 (Windows NT 10.0; Win64; x64) AppleWebKit/537.36 (KHTML, like Gecko) Chrome/133.0.0.0 Safari/537.36" version="26.0.15" pages="4">
  <diagram name="exercicio1" id="LzyFSSV19Kv0499Qqpmr">
    <mxGraphModel dx="1434" dy="780" grid="1" gridSize="10" guides="1" tooltips="1" connect="1" arrows="1" fold="1" page="1" pageScale="1" pageWidth="827" pageHeight="1169" math="0" shadow="0">
      <root>
        <mxCell id="0" />
        <mxCell id="1" parent="0" />
        <mxCell id="FpgmUWMd26mMU1l8DCf6-3" value="" style="edgeStyle=orthogonalEdgeStyle;rounded=0;orthogonalLoop=1;jettySize=auto;html=1;" edge="1" parent="1" source="FpgmUWMd26mMU1l8DCf6-1" target="FpgmUWMd26mMU1l8DCf6-2">
          <mxGeometry relative="1" as="geometry" />
        </mxCell>
        <mxCell id="FpgmUWMd26mMU1l8DCf6-1" value="&lt;font style=&quot;vertical-align: inherit;&quot;&gt;&lt;font style=&quot;vertical-align: inherit;&quot;&gt;&lt;font style=&quot;vertical-align: inherit;&quot;&gt;&lt;font style=&quot;vertical-align: inherit; font-size: 10px;&quot;&gt;Início&lt;/font&gt;&lt;/font&gt;&lt;/font&gt;&lt;/font&gt;" style="ellipse;whiteSpace=wrap;html=1;shadow=1;" vertex="1" parent="1">
          <mxGeometry x="340" y="30" width="100" height="40" as="geometry" />
        </mxCell>
        <mxCell id="FpgmUWMd26mMU1l8DCf6-9" value="" style="edgeStyle=orthogonalEdgeStyle;rounded=0;orthogonalLoop=1;jettySize=auto;html=1;" edge="1" parent="1" source="FpgmUWMd26mMU1l8DCf6-2" target="FpgmUWMd26mMU1l8DCf6-8">
          <mxGeometry relative="1" as="geometry" />
        </mxCell>
        <mxCell id="FpgmUWMd26mMU1l8DCf6-2" value="&lt;font style=&quot;vertical-align: inherit;&quot;&gt;&lt;font style=&quot;vertical-align: inherit;&quot;&gt;&lt;font style=&quot;vertical-align: inherit;&quot;&gt;&lt;font style=&quot;vertical-align: inherit; font-size: 10px;&quot;&gt;O cliente chega na loja&lt;/font&gt;&lt;/font&gt;&lt;/font&gt;&lt;/font&gt;" style="whiteSpace=wrap;html=1;rounded=1;glass=0;shadow=1;" vertex="1" parent="1">
          <mxGeometry x="330" y="90" width="120" height="30" as="geometry" />
        </mxCell>
        <mxCell id="FpgmUWMd26mMU1l8DCf6-11" value="" style="edgeStyle=orthogonalEdgeStyle;rounded=0;orthogonalLoop=1;jettySize=auto;html=1;" edge="1" parent="1" source="FpgmUWMd26mMU1l8DCf6-8" target="FpgmUWMd26mMU1l8DCf6-10">
          <mxGeometry relative="1" as="geometry" />
        </mxCell>
        <mxCell id="FpgmUWMd26mMU1l8DCf6-8" value="&lt;font style=&quot;vertical-align: inherit;&quot;&gt;&lt;font style=&quot;vertical-align: inherit;&quot;&gt;&lt;font style=&quot;vertical-align: inherit;&quot;&gt;&lt;font style=&quot;vertical-align: inherit;&quot;&gt;&lt;font style=&quot;vertical-align: inherit;&quot;&gt;&lt;font style=&quot;vertical-align: inherit; font-size: 10px;&quot;&gt;Vai até o balcão&lt;/font&gt;&lt;/font&gt;&lt;/font&gt;&lt;/font&gt;&lt;/font&gt;&lt;/font&gt;" style="whiteSpace=wrap;html=1;rounded=1;glass=0;shadow=1;" vertex="1" parent="1">
          <mxGeometry x="330" y="140" width="120" height="20" as="geometry" />
        </mxCell>
        <mxCell id="FpgmUWMd26mMU1l8DCf6-20" value="" style="edgeStyle=orthogonalEdgeStyle;rounded=0;orthogonalLoop=1;jettySize=auto;html=1;exitX=0.943;exitY=0.521;exitDx=0;exitDy=0;exitPerimeter=0;" edge="1" parent="1" source="FpgmUWMd26mMU1l8DCf6-10" target="FpgmUWMd26mMU1l8DCf6-19">
          <mxGeometry relative="1" as="geometry" />
        </mxCell>
        <mxCell id="FpgmUWMd26mMU1l8DCf6-26" value="" style="edgeStyle=orthogonalEdgeStyle;rounded=0;orthogonalLoop=1;jettySize=auto;html=1;exitX=0.051;exitY=0.472;exitDx=0;exitDy=0;exitPerimeter=0;" edge="1" parent="1" source="FpgmUWMd26mMU1l8DCf6-10" target="FpgmUWMd26mMU1l8DCf6-25">
          <mxGeometry relative="1" as="geometry" />
        </mxCell>
        <mxCell id="FpgmUWMd26mMU1l8DCf6-10" value="&lt;font style=&quot;vertical-align: inherit;&quot;&gt;&lt;font style=&quot;vertical-align: inherit; font-size: 10px;&quot;&gt;&lt;font style=&quot;vertical-align: inherit;&quot;&gt;&lt;font style=&quot;vertical-align: inherit;&quot;&gt;O cliente vai querer Café Expresso ?&lt;/font&gt;&lt;/font&gt;&lt;/font&gt;&lt;/font&gt;" style="rhombus;whiteSpace=wrap;html=1;rounded=1;glass=0;shadow=1;" vertex="1" parent="1">
          <mxGeometry x="315" y="180" width="150" height="70" as="geometry" />
        </mxCell>
        <mxCell id="FpgmUWMd26mMU1l8DCf6-14" value="&lt;font style=&quot;font-size: 10px;&quot;&gt;não&lt;/font&gt;" style="text;html=1;align=center;verticalAlign=middle;whiteSpace=wrap;rounded=0;" vertex="1" parent="1">
          <mxGeometry x="440" y="191" width="60" height="30" as="geometry" />
        </mxCell>
        <mxCell id="FpgmUWMd26mMU1l8DCf6-21" style="edgeStyle=orthogonalEdgeStyle;rounded=0;orthogonalLoop=1;jettySize=auto;html=1;" edge="1" parent="1" source="FpgmUWMd26mMU1l8DCf6-19" target="FpgmUWMd26mMU1l8DCf6-10">
          <mxGeometry relative="1" as="geometry">
            <mxPoint x="569.9999999999998" y="120" as="targetPoint" />
            <Array as="points">
              <mxPoint x="620" y="170" />
              <mxPoint x="390" y="170" />
            </Array>
          </mxGeometry>
        </mxCell>
        <mxCell id="FpgmUWMd26mMU1l8DCf6-23" value="" style="edgeStyle=orthogonalEdgeStyle;rounded=0;orthogonalLoop=1;jettySize=auto;html=1;" edge="1" parent="1" source="FpgmUWMd26mMU1l8DCf6-19" target="FpgmUWMd26mMU1l8DCf6-22">
          <mxGeometry relative="1" as="geometry" />
        </mxCell>
        <mxCell id="FpgmUWMd26mMU1l8DCf6-19" value="&lt;span style=&quot;font-size: 10px;&quot;&gt;O cliente vai querer Latte?&lt;/span&gt;" style="rhombus;whiteSpace=wrap;html=1;rounded=1;glass=0;shadow=1;" vertex="1" parent="1">
          <mxGeometry x="545" y="181" width="150" height="70" as="geometry" />
        </mxCell>
        <mxCell id="FpgmUWMd26mMU1l8DCf6-32" value="" style="edgeStyle=orthogonalEdgeStyle;rounded=0;orthogonalLoop=1;jettySize=auto;html=1;" edge="1" parent="1" source="FpgmUWMd26mMU1l8DCf6-22" target="FpgmUWMd26mMU1l8DCf6-31">
          <mxGeometry relative="1" as="geometry" />
        </mxCell>
        <mxCell id="FpgmUWMd26mMU1l8DCf6-22" value="&lt;span style=&quot;font-size: 10px;&quot;&gt;O atendente vai preparar o Latte&lt;/span&gt;" style="whiteSpace=wrap;html=1;rounded=1;glass=0;shadow=1;" vertex="1" parent="1">
          <mxGeometry x="560" y="300" width="120" height="30" as="geometry" />
        </mxCell>
        <mxCell id="FpgmUWMd26mMU1l8DCf6-24" value="&lt;font style=&quot;font-size: 10px;&quot;&gt;não&lt;/font&gt;" style="text;html=1;align=center;verticalAlign=middle;whiteSpace=wrap;rounded=0;" vertex="1" parent="1">
          <mxGeometry x="580" y="145" width="60" height="30" as="geometry" />
        </mxCell>
        <mxCell id="FpgmUWMd26mMU1l8DCf6-30" value="" style="edgeStyle=orthogonalEdgeStyle;rounded=0;orthogonalLoop=1;jettySize=auto;html=1;" edge="1" parent="1" source="FpgmUWMd26mMU1l8DCf6-25" target="FpgmUWMd26mMU1l8DCf6-29">
          <mxGeometry relative="1" as="geometry" />
        </mxCell>
        <mxCell id="FpgmUWMd26mMU1l8DCf6-25" value="&lt;font style=&quot;font-size: 10px;&quot;&gt;O atendente vai preparar o Café Expresso&lt;/font&gt;" style="whiteSpace=wrap;html=1;rounded=1;glass=0;shadow=1;" vertex="1" parent="1">
          <mxGeometry x="100" y="195" width="120" height="36" as="geometry" />
        </mxCell>
        <mxCell id="FpgmUWMd26mMU1l8DCf6-27" value="&lt;span style=&quot;font-size: 10px;&quot;&gt;sim&lt;/span&gt;" style="text;html=1;align=center;verticalAlign=middle;whiteSpace=wrap;rounded=0;" vertex="1" parent="1">
          <mxGeometry x="578" y="242" width="60" height="30" as="geometry" />
        </mxCell>
        <mxCell id="FpgmUWMd26mMU1l8DCf6-34" value="" style="edgeStyle=orthogonalEdgeStyle;rounded=0;orthogonalLoop=1;jettySize=auto;html=1;" edge="1" parent="1" source="FpgmUWMd26mMU1l8DCf6-29" target="FpgmUWMd26mMU1l8DCf6-33">
          <mxGeometry relative="1" as="geometry" />
        </mxCell>
        <mxCell id="FpgmUWMd26mMU1l8DCf6-29" value="&lt;font style=&quot;font-size: 10px;&quot;&gt;Entregar o café expresso para o cliente&lt;/font&gt;" style="whiteSpace=wrap;html=1;rounded=1;glass=0;shadow=1;" vertex="1" parent="1">
          <mxGeometry x="100" y="299" width="120" height="51" as="geometry" />
        </mxCell>
        <mxCell id="FpgmUWMd26mMU1l8DCf6-31" value="&lt;font style=&quot;font-size: 10px;&quot;&gt;Entregar o latte para o cliente&lt;/font&gt;" style="whiteSpace=wrap;html=1;rounded=1;glass=0;shadow=1;" vertex="1" parent="1">
          <mxGeometry x="360" y="297.5" width="120" height="35" as="geometry" />
        </mxCell>
        <mxCell id="FpgmUWMd26mMU1l8DCf6-33" value="Fim." style="ellipse;whiteSpace=wrap;html=1;rounded=1;glass=0;shadow=1;" vertex="1" parent="1">
          <mxGeometry x="120" y="415.5" width="80" height="34.5" as="geometry" />
        </mxCell>
        <mxCell id="FpgmUWMd26mMU1l8DCf6-35" style="edgeStyle=orthogonalEdgeStyle;rounded=0;orthogonalLoop=1;jettySize=auto;html=1;" edge="1" parent="1" source="FpgmUWMd26mMU1l8DCf6-31" target="FpgmUWMd26mMU1l8DCf6-33">
          <mxGeometry relative="1" as="geometry">
            <Array as="points">
              <mxPoint x="280" y="315" />
              <mxPoint x="280" y="433" />
            </Array>
          </mxGeometry>
        </mxCell>
        <mxCell id="FpgmUWMd26mMU1l8DCf6-36" value="&lt;span style=&quot;font-size: 10px;&quot;&gt;sim&lt;/span&gt;" style="text;html=1;align=center;verticalAlign=middle;whiteSpace=wrap;rounded=0;" vertex="1" parent="1">
          <mxGeometry x="280" y="190" width="60" height="30" as="geometry" />
        </mxCell>
      </root>
    </mxGraphModel>
  </diagram>
  <diagram id="RUnypsVdY3TiSdhE-9SY" name="exercico2">
    <mxGraphModel dx="989" dy="538" grid="1" gridSize="10" guides="1" tooltips="1" connect="1" arrows="1" fold="1" page="1" pageScale="1" pageWidth="827" pageHeight="1169" math="0" shadow="0">
      <root>
        <mxCell id="0" />
        <mxCell id="1" parent="0" />
        <mxCell id="6DXZ8bFYtq37BVKiwOsS-3" value="" style="edgeStyle=orthogonalEdgeStyle;rounded=0;orthogonalLoop=1;jettySize=auto;html=1;" edge="1" parent="1" source="6DXZ8bFYtq37BVKiwOsS-1" target="6DXZ8bFYtq37BVKiwOsS-2">
          <mxGeometry relative="1" as="geometry" />
        </mxCell>
        <mxCell id="6DXZ8bFYtq37BVKiwOsS-1" value="&lt;font style=&quot;font-size: 10px;&quot;&gt;Inicio&lt;/font&gt;" style="ellipse;whiteSpace=wrap;html=1;shadow=1;" vertex="1" parent="1">
          <mxGeometry x="273.5" y="20" width="90" height="40" as="geometry" />
        </mxCell>
        <mxCell id="F1xMZQqGolJwO263UIr9-2" value="" style="edgeStyle=orthogonalEdgeStyle;rounded=0;orthogonalLoop=1;jettySize=auto;html=1;" edge="1" parent="1" source="6DXZ8bFYtq37BVKiwOsS-2" target="F1xMZQqGolJwO263UIr9-1">
          <mxGeometry relative="1" as="geometry" />
        </mxCell>
        <mxCell id="6DXZ8bFYtq37BVKiwOsS-2" value="&lt;font style=&quot;font-size: 10px;&quot;&gt;a pessoa vai verificar o clima do dia&lt;/font&gt;" style="whiteSpace=wrap;html=1;shadow=1;rounded=1;arcSize=23;" vertex="1" parent="1">
          <mxGeometry x="261" y="100" width="115" height="40" as="geometry" />
        </mxCell>
        <mxCell id="R8GO_xBlfPgvCmj4ufsa-2" value="" style="edgeStyle=orthogonalEdgeStyle;rounded=0;orthogonalLoop=1;jettySize=auto;html=1;exitX=0.064;exitY=0.545;exitDx=0;exitDy=0;exitPerimeter=0;" edge="1" parent="1" source="F1xMZQqGolJwO263UIr9-1" target="R8GO_xBlfPgvCmj4ufsa-1">
          <mxGeometry relative="1" as="geometry" />
        </mxCell>
        <mxCell id="R8GO_xBlfPgvCmj4ufsa-7" value="" style="edgeStyle=orthogonalEdgeStyle;rounded=0;orthogonalLoop=1;jettySize=auto;html=1;exitX=0.936;exitY=0.5;exitDx=0;exitDy=0;exitPerimeter=0;" edge="1" parent="1" source="F1xMZQqGolJwO263UIr9-1" target="R8GO_xBlfPgvCmj4ufsa-6">
          <mxGeometry relative="1" as="geometry" />
        </mxCell>
        <mxCell id="F1xMZQqGolJwO263UIr9-1" value="&lt;font style=&quot;font-size: 10px;&quot;&gt;está calor?&lt;/font&gt;" style="rhombus;whiteSpace=wrap;html=1;shadow=1;rounded=1;arcSize=23;" vertex="1" parent="1">
          <mxGeometry x="260" y="170" width="117.5" height="60" as="geometry" />
        </mxCell>
        <mxCell id="R8GO_xBlfPgvCmj4ufsa-1" value="&lt;font style=&quot;font-size: 10px;&quot;&gt;a pessoa vai vestir roupas leves e frescas&lt;/font&gt;" style="whiteSpace=wrap;html=1;shadow=1;rounded=1;arcSize=23;" vertex="1" parent="1">
          <mxGeometry x="61.25" y="178" width="118.75" height="48" as="geometry" />
        </mxCell>
        <mxCell id="R8GO_xBlfPgvCmj4ufsa-3" value="&lt;font style=&quot;font-size: 10px;&quot;&gt;sim&lt;/font&gt;" style="text;html=1;align=center;verticalAlign=middle;whiteSpace=wrap;rounded=0;" vertex="1" parent="1">
          <mxGeometry x="223" y="177" width="60" height="30" as="geometry" />
        </mxCell>
        <mxCell id="R8GO_xBlfPgvCmj4ufsa-15" value="" style="edgeStyle=orthogonalEdgeStyle;rounded=0;orthogonalLoop=1;jettySize=auto;html=1;" edge="1" parent="1" source="R8GO_xBlfPgvCmj4ufsa-6" target="R8GO_xBlfPgvCmj4ufsa-9">
          <mxGeometry relative="1" as="geometry" />
        </mxCell>
        <mxCell id="R8GO_xBlfPgvCmj4ufsa-6" value="&lt;font style=&quot;font-size: 10px;&quot;&gt;a pessoa vai vestir roupas de frio um casaco por exemplo&lt;/font&gt;" style="whiteSpace=wrap;html=1;shadow=1;rounded=1;arcSize=23;" vertex="1" parent="1">
          <mxGeometry x="456.25" y="175" width="123.75" height="50" as="geometry" />
        </mxCell>
        <mxCell id="R8GO_xBlfPgvCmj4ufsa-8" value="&lt;span style=&quot;font-size: 10px;&quot;&gt;não&lt;/span&gt;" style="text;html=1;align=center;verticalAlign=middle;whiteSpace=wrap;rounded=0;" vertex="1" parent="1">
          <mxGeometry x="354" y="174" width="60" height="30" as="geometry" />
        </mxCell>
        <mxCell id="R8GO_xBlfPgvCmj4ufsa-12" value="" style="edgeStyle=orthogonalEdgeStyle;rounded=0;orthogonalLoop=1;jettySize=auto;html=1;exitX=0.038;exitY=0.516;exitDx=0;exitDy=0;exitPerimeter=0;" edge="1" parent="1" source="R8GO_xBlfPgvCmj4ufsa-9" target="R8GO_xBlfPgvCmj4ufsa-11">
          <mxGeometry relative="1" as="geometry" />
        </mxCell>
        <mxCell id="R8GO_xBlfPgvCmj4ufsa-20" value="" style="edgeStyle=orthogonalEdgeStyle;rounded=0;orthogonalLoop=1;jettySize=auto;html=1;exitX=0.969;exitY=0.5;exitDx=0;exitDy=0;exitPerimeter=0;" edge="1" parent="1" source="R8GO_xBlfPgvCmj4ufsa-9" target="R8GO_xBlfPgvCmj4ufsa-19">
          <mxGeometry relative="1" as="geometry" />
        </mxCell>
        <mxCell id="R8GO_xBlfPgvCmj4ufsa-9" value="&lt;font style=&quot;font-size: 10px;&quot;&gt;o dia tem previsão de chuva?&lt;/font&gt;" style="rhombus;whiteSpace=wrap;html=1;shadow=1;rounded=1;arcSize=23;" vertex="1" parent="1">
          <mxGeometry x="452.18" y="260" width="131.88" height="80" as="geometry" />
        </mxCell>
        <mxCell id="R8GO_xBlfPgvCmj4ufsa-22" value="" style="edgeStyle=orthogonalEdgeStyle;rounded=0;orthogonalLoop=1;jettySize=auto;html=1;" edge="1" parent="1" source="R8GO_xBlfPgvCmj4ufsa-11" target="R8GO_xBlfPgvCmj4ufsa-21">
          <mxGeometry relative="1" as="geometry" />
        </mxCell>
        <mxCell id="R8GO_xBlfPgvCmj4ufsa-11" value="&lt;font style=&quot;font-size: 10px;&quot;&gt;pode sair de casa sem o guarda-chuva&lt;/font&gt;" style="whiteSpace=wrap;html=1;shadow=1;rounded=1;arcSize=23;" vertex="1" parent="1">
          <mxGeometry x="273.5" y="330" width="120" height="40" as="geometry" />
        </mxCell>
        <mxCell id="R8GO_xBlfPgvCmj4ufsa-16" value="&lt;span style=&quot;font-size: 10px;&quot;&gt;não&lt;/span&gt;" style="text;html=1;align=center;verticalAlign=middle;whiteSpace=wrap;rounded=0;" vertex="1" parent="1">
          <mxGeometry x="414" y="277" width="60" height="30" as="geometry" />
        </mxCell>
        <mxCell id="R8GO_xBlfPgvCmj4ufsa-17" value="&lt;font style=&quot;font-size: 10px;&quot;&gt;sim&lt;/font&gt;" style="text;html=1;align=center;verticalAlign=middle;whiteSpace=wrap;rounded=0;" vertex="1" parent="1">
          <mxGeometry x="570" y="277" width="60" height="30" as="geometry" />
        </mxCell>
        <mxCell id="R8GO_xBlfPgvCmj4ufsa-18" style="edgeStyle=orthogonalEdgeStyle;rounded=0;orthogonalLoop=1;jettySize=auto;html=1;entryX=0.164;entryY=0.318;entryDx=0;entryDy=0;entryPerimeter=0;" edge="1" parent="1" source="R8GO_xBlfPgvCmj4ufsa-1" target="R8GO_xBlfPgvCmj4ufsa-9">
          <mxGeometry relative="1" as="geometry">
            <Array as="points">
              <mxPoint x="121" y="250" />
              <mxPoint x="474" y="250" />
            </Array>
          </mxGeometry>
        </mxCell>
        <mxCell id="R8GO_xBlfPgvCmj4ufsa-26" style="edgeStyle=orthogonalEdgeStyle;rounded=0;orthogonalLoop=1;jettySize=auto;html=1;entryX=1;entryY=0.5;entryDx=0;entryDy=0;" edge="1" parent="1" source="R8GO_xBlfPgvCmj4ufsa-19" target="R8GO_xBlfPgvCmj4ufsa-21">
          <mxGeometry relative="1" as="geometry">
            <Array as="points">
              <mxPoint x="700" y="455" />
            </Array>
          </mxGeometry>
        </mxCell>
        <mxCell id="R8GO_xBlfPgvCmj4ufsa-19" value="&lt;font style=&quot;font-size: 10px;&quot;&gt;pegar o guarda-chuva&lt;/font&gt;" style="whiteSpace=wrap;html=1;shadow=1;rounded=1;arcSize=23;" vertex="1" parent="1">
          <mxGeometry x="640" y="330" width="120" height="40" as="geometry" />
        </mxCell>
        <mxCell id="R8GO_xBlfPgvCmj4ufsa-25" value="" style="edgeStyle=orthogonalEdgeStyle;rounded=0;orthogonalLoop=1;jettySize=auto;html=1;" edge="1" parent="1" source="R8GO_xBlfPgvCmj4ufsa-21" target="R8GO_xBlfPgvCmj4ufsa-24">
          <mxGeometry relative="1" as="geometry" />
        </mxCell>
        <mxCell id="R8GO_xBlfPgvCmj4ufsa-21" value="&lt;font style=&quot;font-size: 10px;&quot;&gt;sair de casa&amp;nbsp;&lt;/font&gt;" style="whiteSpace=wrap;html=1;shadow=1;rounded=1;arcSize=23;" vertex="1" parent="1">
          <mxGeometry x="276" y="440" width="116.5" height="30" as="geometry" />
        </mxCell>
        <mxCell id="R8GO_xBlfPgvCmj4ufsa-24" value="&lt;font style=&quot;font-size: 10px;&quot;&gt;Fim.&lt;/font&gt;" style="ellipse;whiteSpace=wrap;html=1;shadow=1;rounded=1;arcSize=23;" vertex="1" parent="1">
          <mxGeometry x="84.5" y="437" width="72.25" height="35" as="geometry" />
        </mxCell>
      </root>
    </mxGraphModel>
  </diagram>
  <diagram id="b-0oaiy9r6FpCSEaQVXw" name="exercicio4">
    <mxGraphModel dx="1195" dy="650" grid="1" gridSize="10" guides="1" tooltips="1" connect="1" arrows="1" fold="1" page="1" pageScale="1" pageWidth="827" pageHeight="1169" math="0" shadow="0">
      <root>
        <mxCell id="0" />
        <mxCell id="1" parent="0" />
        <mxCell id="slKX_kOUd4sJ9-ozoMOi-2" value="" style="edgeStyle=orthogonalEdgeStyle;rounded=0;orthogonalLoop=1;jettySize=auto;html=1;" edge="1" parent="1" source="Y_6Yy2CLX-2vImQg1bhn-1" target="slKX_kOUd4sJ9-ozoMOi-1">
          <mxGeometry relative="1" as="geometry" />
        </mxCell>
        <mxCell id="Y_6Yy2CLX-2vImQg1bhn-1" value="&lt;font style=&quot;font-size: 10px;&quot;&gt;Inicio&lt;/font&gt;" style="ellipse;whiteSpace=wrap;html=1;shadow=1;" vertex="1" parent="1">
          <mxGeometry x="357.5" y="40" width="90" height="40" as="geometry" />
        </mxCell>
        <mxCell id="slKX_kOUd4sJ9-ozoMOi-4" value="" style="edgeStyle=orthogonalEdgeStyle;rounded=0;orthogonalLoop=1;jettySize=auto;html=1;" edge="1" parent="1" source="slKX_kOUd4sJ9-ozoMOi-1" target="slKX_kOUd4sJ9-ozoMOi-3">
          <mxGeometry relative="1" as="geometry" />
        </mxCell>
        <mxCell id="slKX_kOUd4sJ9-ozoMOi-1" value="&lt;font style=&quot;font-size: 10px;&quot;&gt;Pedir para o usuário digitar o nome dele&lt;/font&gt;" style="whiteSpace=wrap;html=1;shadow=1;rounded=1;" vertex="1" parent="1">
          <mxGeometry x="325.5" y="110" width="155" height="30" as="geometry" />
        </mxCell>
        <mxCell id="slKX_kOUd4sJ9-ozoMOi-6" value="" style="edgeStyle=orthogonalEdgeStyle;rounded=0;orthogonalLoop=1;jettySize=auto;html=1;" edge="1" parent="1" source="slKX_kOUd4sJ9-ozoMOi-3" target="slKX_kOUd4sJ9-ozoMOi-5">
          <mxGeometry relative="1" as="geometry" />
        </mxCell>
        <mxCell id="slKX_kOUd4sJ9-ozoMOi-3" value="&lt;font style=&quot;font-size: 10px;&quot;&gt;guardar o nome do usuário na variável &quot;nome&quot;&lt;/font&gt;" style="whiteSpace=wrap;html=1;shadow=1;rounded=1;" vertex="1" parent="1">
          <mxGeometry x="320.5" y="172" width="165" height="40" as="geometry" />
        </mxCell>
        <mxCell id="slKX_kOUd4sJ9-ozoMOi-8" value="" style="edgeStyle=orthogonalEdgeStyle;rounded=0;orthogonalLoop=1;jettySize=auto;html=1;" edge="1" parent="1" source="slKX_kOUd4sJ9-ozoMOi-5" target="slKX_kOUd4sJ9-ozoMOi-7">
          <mxGeometry relative="1" as="geometry" />
        </mxCell>
        <mxCell id="slKX_kOUd4sJ9-ozoMOi-5" value="&lt;font style=&quot;font-size: 10px;&quot;&gt;exibir na tela do usuário &quot;Olá, &quot;+nome+&quot;!&quot;&lt;/font&gt;" style="whiteSpace=wrap;html=1;shadow=1;rounded=1;" vertex="1" parent="1">
          <mxGeometry x="300" y="247" width="205" height="33" as="geometry" />
        </mxCell>
        <mxCell id="slKX_kOUd4sJ9-ozoMOi-7" value="&lt;font style=&quot;font-size: 10px;&quot;&gt;Fim.&lt;/font&gt;" style="ellipse;whiteSpace=wrap;html=1;shadow=1;rounded=1;" vertex="1" parent="1">
          <mxGeometry x="355.5" y="320" width="95" height="43.5" as="geometry" />
        </mxCell>
      </root>
    </mxGraphModel>
  </diagram>
  <diagram id="tM_Lv1VrHq03UVvKTOWW" name="exercicio5">
    <mxGraphModel dx="989" dy="538" grid="1" gridSize="10" guides="1" tooltips="1" connect="1" arrows="1" fold="1" page="1" pageScale="1" pageWidth="827" pageHeight="1169" math="0" shadow="0">
      <root>
        <mxCell id="0" />
        <mxCell id="1" parent="0" />
        <mxCell id="NF56amPE0Q15x_hilyyS-5" value="" style="edgeStyle=orthogonalEdgeStyle;rounded=0;orthogonalLoop=1;jettySize=auto;html=1;" edge="1" parent="1" source="NF56amPE0Q15x_hilyyS-3" target="NF56amPE0Q15x_hilyyS-4">
          <mxGeometry relative="1" as="geometry" />
        </mxCell>
        <mxCell id="NF56amPE0Q15x_hilyyS-3" value="&lt;font style=&quot;font-size: 10px;&quot;&gt;Inicio&lt;/font&gt;" style="ellipse;whiteSpace=wrap;html=1;shadow=1;" vertex="1" parent="1">
          <mxGeometry x="340" y="30" width="80" height="40" as="geometry" />
        </mxCell>
        <mxCell id="NF56amPE0Q15x_hilyyS-9" value="" style="edgeStyle=orthogonalEdgeStyle;rounded=0;orthogonalLoop=1;jettySize=auto;html=1;" edge="1" parent="1" source="NF56amPE0Q15x_hilyyS-4" target="NF56amPE0Q15x_hilyyS-8">
          <mxGeometry relative="1" as="geometry" />
        </mxCell>
        <mxCell id="NF56amPE0Q15x_hilyyS-4" value="&lt;font style=&quot;font-size: 10px;&quot;&gt;Digitar um número positivo (n)&lt;/font&gt;" style="whiteSpace=wrap;html=1;shadow=1;rounded=1;" vertex="1" parent="1">
          <mxGeometry x="320" y="100" width="120" height="30" as="geometry" />
        </mxCell>
        <mxCell id="MGIOEsB2hbpWHHCdORAE-2" value="" style="edgeStyle=orthogonalEdgeStyle;rounded=0;orthogonalLoop=1;jettySize=auto;html=1;" edge="1" parent="1" source="NF56amPE0Q15x_hilyyS-8" target="MGIOEsB2hbpWHHCdORAE-1">
          <mxGeometry relative="1" as="geometry" />
        </mxCell>
        <mxCell id="MGIOEsB2hbpWHHCdORAE-5" value="" style="edgeStyle=orthogonalEdgeStyle;rounded=0;orthogonalLoop=1;jettySize=auto;html=1;" edge="1" parent="1" source="NF56amPE0Q15x_hilyyS-8" target="MGIOEsB2hbpWHHCdORAE-4">
          <mxGeometry relative="1" as="geometry" />
        </mxCell>
        <mxCell id="NF56amPE0Q15x_hilyyS-8" value="&lt;font style=&quot;font-size: 10px;&quot;&gt;esse número (n) é divisíve&lt;/font&gt;&lt;span style=&quot;font-size: 10px; background-color: transparent; color: light-dark(rgb(0, 0, 0), rgb(255, 255, 255));&quot;&gt;l&lt;/span&gt;&lt;div&gt;&lt;span style=&quot;font-size: 10px; background-color: transparent; color: light-dark(rgb(0, 0, 0), rgb(255, 255, 255));&quot;&gt;&amp;nbsp;por 2?&amp;nbsp;&lt;/span&gt;&lt;/div&gt;" style="rhombus;whiteSpace=wrap;html=1;shadow=1;rounded=1;" vertex="1" parent="1">
          <mxGeometry x="301.25" y="160" width="157.5" height="80" as="geometry" />
        </mxCell>
        <mxCell id="MGIOEsB2hbpWHHCdORAE-10" style="edgeStyle=orthogonalEdgeStyle;rounded=0;orthogonalLoop=1;jettySize=auto;html=1;entryX=1;entryY=0.5;entryDx=0;entryDy=0;" edge="1" parent="1" source="MGIOEsB2hbpWHHCdORAE-1" target="MGIOEsB2hbpWHHCdORAE-7">
          <mxGeometry relative="1" as="geometry">
            <Array as="points">
              <mxPoint x="585" y="305" />
            </Array>
          </mxGeometry>
        </mxCell>
        <mxCell id="MGIOEsB2hbpWHHCdORAE-1" value="&lt;font style=&quot;font-size: 10px;&quot;&gt;exibir para o usuário que o (n) é &quot;Impar&quot;&lt;/font&gt;" style="whiteSpace=wrap;html=1;shadow=1;rounded=1;" vertex="1" parent="1">
          <mxGeometry x="520" y="180" width="130" height="40" as="geometry" />
        </mxCell>
        <mxCell id="MGIOEsB2hbpWHHCdORAE-3" value="&lt;font style=&quot;font-size: 10px;&quot;&gt;não&lt;/font&gt;" style="text;html=1;align=center;verticalAlign=middle;whiteSpace=wrap;rounded=0;" vertex="1" parent="1">
          <mxGeometry x="430" y="172" width="60" height="30" as="geometry" />
        </mxCell>
        <mxCell id="MGIOEsB2hbpWHHCdORAE-8" value="" style="edgeStyle=orthogonalEdgeStyle;rounded=0;orthogonalLoop=1;jettySize=auto;html=1;" edge="1" parent="1" source="MGIOEsB2hbpWHHCdORAE-4" target="MGIOEsB2hbpWHHCdORAE-7">
          <mxGeometry relative="1" as="geometry" />
        </mxCell>
        <mxCell id="MGIOEsB2hbpWHHCdORAE-4" value="&lt;font style=&quot;font-size: 10px;&quot;&gt;exibir para o usuário que o (n) é &quot;Par&quot;&lt;/font&gt;" style="whiteSpace=wrap;html=1;shadow=1;rounded=1;" vertex="1" parent="1">
          <mxGeometry x="70" y="185" width="132.5" height="30" as="geometry" />
        </mxCell>
        <mxCell id="MGIOEsB2hbpWHHCdORAE-6" value="&lt;span style=&quot;font-size: 10px;&quot;&gt;sim&lt;/span&gt;" style="text;html=1;align=center;verticalAlign=middle;whiteSpace=wrap;rounded=0;" vertex="1" parent="1">
          <mxGeometry x="260" y="172" width="60" height="30" as="geometry" />
        </mxCell>
        <mxCell id="MGIOEsB2hbpWHHCdORAE-7" value="&lt;font style=&quot;font-size: 10px;&quot;&gt;Fim.&lt;/font&gt;" style="ellipse;whiteSpace=wrap;html=1;shadow=1;rounded=1;" vertex="1" parent="1">
          <mxGeometry x="94.37" y="280" width="83.75" height="50" as="geometry" />
        </mxCell>
      </root>
    </mxGraphModel>
  </diagram>
</mxfile>
